<svg width="22" height="17" viewBox="0 0 22 17" fill="none" xmlns="http://www.w3.org/2000/svg">
<path d="M19.9809 4.98083L15.3334 9.62833L13.9251 8.23083L12.3976 9.76917L15.3226 12.6942L21.5192 6.51917L19.9809 4.98083ZM2.33341 4.66667C2.32007 5.23938 2.42304 5.80884 2.63609 6.34062C2.84914 6.87239 3.16784 7.35542 3.57291 7.7605C3.97799 8.16558 4.46102 8.48428 4.9928 8.69733C5.52457 8.91037 6.09404 9.01334 6.66675 9C7.23946 9.01334 7.80892 8.91037 8.3407 8.69733C8.87247 8.48428 9.35551 8.16558 9.76058 7.7605C10.1657 7.35542 10.4844 6.87239 10.6974 6.34062C10.9105 5.80884 11.0134 5.23938 11.0001 4.66667C11.0134 4.09396 10.9105 3.52449 10.6974 2.99272C10.4844 2.46094 10.1657 1.97791 9.76058 1.57283C9.35551 1.16775 8.87247 0.849054 8.3407 0.636006C7.80892 0.422959 7.23946 0.319991 6.66675 0.333333C6.09404 0.319991 5.52457 0.422959 4.9928 0.636006C4.46102 0.849054 3.97799 1.16775 3.57291 1.57283C3.16784 1.97791 2.84914 2.46094 2.63609 2.99272C2.42304 3.52449 2.32007 4.09396 2.33341 4.66667ZM8.83342 4.66667C8.84735 4.95489 8.80084 5.24284 8.69689 5.51202C8.59293 5.7812 8.43383 6.02566 8.22978 6.2297C8.02574 6.43374 7.78128 6.59285 7.5121 6.69681C7.24292 6.80076 6.95497 6.84727 6.66675 6.83333C6.37853 6.84727 6.09058 6.80076 5.8214 6.69681C5.55222 6.59285 5.30775 6.43374 5.10371 6.2297C4.89967 6.02566 4.74056 5.7812 4.63661 5.51202C4.53265 5.24284 4.48615 4.95489 4.50008 4.66667C4.48615 4.37845 4.53265 4.0905 4.63661 3.82131C4.74056 3.55213 4.89967 3.30767 5.10371 3.10363C5.30775 2.89959 5.55222 2.74048 5.8214 2.63653C6.09058 2.53257 6.37853 2.48607 6.66675 2.5C6.95497 2.48607 7.24292 2.53257 7.5121 2.63653C7.78128 2.74048 8.02574 2.89959 8.22978 3.10363C8.43383 3.30767 8.59293 3.55213 8.69689 3.82131C8.80084 4.0905 8.84735 4.37845 8.83342 4.66667ZM2.33341 15.5C2.33341 14.638 2.67582 13.8114 3.28532 13.2019C3.89481 12.5924 4.72146 12.25 5.58342 12.25H7.75008C8.61204 12.25 9.43869 12.5924 10.0482 13.2019C10.6577 13.8114 11.0001 14.638 11.0001 15.5V16.5833H13.1667V15.5C13.1667 14.7887 13.0266 14.0843 12.7544 13.4271C12.4822 12.7699 12.0832 12.1728 11.5802 11.6698C11.0773 11.1669 10.4801 10.7679 9.82295 10.4957C9.16577 10.2234 8.46141 10.0833 7.75008 10.0833H5.58342C4.14683 10.0833 2.76908 10.654 1.75325 11.6698C0.737431 12.6857 0.166748 14.0634 0.166748 15.5V16.5833H2.33341V15.5Z" fill="white"/>
</svg>
